<?xml version="1.0" encoding="UTF-8"?>
<svg width="180px" height="180px" viewBox="0 0 180 180" version="1.1" xmlns="http://www.w3.org/2000/svg" xmlns:xlink="http://www.w3.org/1999/xlink">
    <!-- Generator: Sketch 49.3 (51167) - http://www.bohemiancoding.com/sketch -->
    <title>a-class-icon</title>
    <desc>Created with Sketch.</desc>
    <defs></defs>
    <g id="a-class-icon" stroke="none" stroke-width="1" fill="none" fill-rule="evenodd">
        <g id="Group-2" transform="translate(3.000000, 3.000000)">
            <circle id="Oval-2" fill="#6FB7FF" cx="87.5" cy="87.5" r="87.5"></circle>
            <path d="M69.3673667,87.9189222 L65.6471889,98.3819222 C64.2521222,102.1021 63.4383333,105.706022 63.4383333,107.914878 C63.4383333,112.100078 66.4609778,113.960167 73.2038,114.192678 L73.2038,117.099067 L46,117.099067 L46,114.192678 C52.6265667,114.192678 56.463,110.123733 60.8807111,98.3819222 L85.6431444,32.8137889 L92.8509889,32 L117.497167,102.218356 C120.752322,111.751311 122.961178,113.960167 129.704,114.192678 L129.704,117.099067 L99.7100667,117.099067 L99.7100667,114.192678 C105.6391,113.960167 108.080467,112.5651 108.080467,109.193689 C108.080467,107.798622 107.615444,105.473511 106.6854,102.567122 L101.802667,87.9189222 L69.3673667,87.9189222 Z M100.291344,83.6174667 L86.1081667,42.9280222 L70.9949444,83.6174667 L100.291344,83.6174667 Z" id="A" fill="#FFFFFF"></path>
            <g id="Group" transform="translate(47.000000, 128.000000)">
                <polygon id="Star" stroke="#FFFFFF" points="8.0049505 12 3.29975865 14.472136 4.19837033 9.23606798 0.391790164 5.52786405 5.65235457 4.76393202 8.0049505 0 10.3575464 4.76393202 15.6181108 5.52786405 11.8115307 9.23606798 12.7101423 14.472136"></polygon>
                <polygon id="Star" stroke="#FFFFFF" points="46.1237624 12 41.4185705 14.472136 42.3171822 9.23606798 38.510602 5.52786405 43.7711665 4.76393202 46.1237624 0 48.4763583 4.76393202 53.7369227 5.52786405 49.9303425 9.23606798 50.8289542 14.472136"></polygon>
                <polygon id="Star" stroke="#FFFFFF" points="27.0643564 12 22.3591646 14.472136 23.2577763 9.23606798 19.4511961 5.52786405 24.7117605 4.76393202 27.0643564 0 29.4169524 4.76393202 34.6775168 5.52786405 30.8709366 9.23606798 31.7695483 14.472136"></polygon>
                <ellipse id="Oval" fill="#FFFFFF" cx="63.5021658" cy="8.5" rx="3.50216584" ry="3.5"></ellipse>
                <ellipse id="Oval" fill="#FFFFFF" cx="76.767409" cy="8.4978355" rx="3.5" ry="3.4978355"></ellipse>
            </g>
        </g>
    </g>
</svg>