<?xml version="1.0" encoding="UTF-8"?>
<svg width="180px" height="180px" viewBox="0 0 180 180" version="1.1" xmlns="http://www.w3.org/2000/svg" xmlns:xlink="http://www.w3.org/1999/xlink">
    <!-- Generator: Sketch 49.3 (51167) - http://www.bohemiancoding.com/sketch -->
    <title>baha-icon</title>
    <desc>Created with Sketch.</desc>
    <defs>
        <circle id="path-1" cx="87.5" cy="87.5" r="87.5"></circle>
    </defs>
    <g id="baha-icon" stroke="none" stroke-width="1" fill="none" fill-rule="evenodd">
        <g id="Group" transform="translate(3.000000, 3.000000)">
            <circle id="Oval-2" fill="#6FB7FF" cx="87.5" cy="87.5" r="87.5"></circle>
            <g id="Path-5">
                <mask id="mask-2" fill="white">
                    <use xlink:href="#path-1"></use>
                </mask>
                <use id="Mask" fill="#6FB7FF" xlink:href="#path-1"></use>
                <path d="M4,72.520605 C15.9674148,75.915296 29.77076,82.4207024 41.7144087,77.1813536 C36.7425426,82.8561316 33.6208666,90.7021393 36.7425426,90.7021393 C47.9557628,89.0523415 71.9614416,78.676287 73.3922304,72.520605 C70.5212867,61.2231112 59.9620128,60.15347 41.7144087,69.3116813 C22.2301757,57.3125589 12.4880591,50.3046735 12.4880591,48.2880251 C12.4880591,45.2630526 27.8683907,55.5743643 41.7144087,55.5743643 C49.5002507,55.5743643 57.2234378,53.6046784 64.8839701,49.6653065 C71.4402422,53.6046784 76.3558619,55.5743643 79.6308291,55.5743643 C86.0437125,55.5743643 91.2389798,51.4638183 95.2166311,43.2427263 L165.904113,30 L114.481424,62.9790267 C104.387173,56.7244653 97.034737,56.7244653 92.4241155,62.9790267 C89.4938229,64.825597 93.2511388,71.5753134 99.3400478,72.520605 C117.240667,69.3116813 140.124291,67.607475 141.674584,70.6250682 C143.401191,73.8434577 117.284634,79.2709403 105.440803,84.3955157 C101.710548,87.6079797 110.153899,94.0435848 114.481424,94.0435848 C118.624134,94.0435848 118.484822,87.2269885 122.381272,84.3955157 C143.008654,84.3955157 165.214897,84.3955157 189,84.3955157 L161.312505,98.5469637 C149.297162,95.5447111 140.469644,99.2348156 134.82995,109.617277 C136.129205,118.038766 147.970222,128.308784 165.904113,128.308784 C152.954036,150.967689 120.521483,178.850883 97.0252306,175.764647 C99.3400478,170.259071 105.440803,129.303882 73.3922304,120.61423 C64.8839701,117.521263 58.3803795,126.26061 55.4369492,139.473756 C53.0690544,140.895211 50.1248319,140.895211 46.6042818,139.473756 C46.6042818,129.191475 44.9743241,121.873977 41.7144087,117.521263 C42.6346421,114.867194 50.3450775,123.008086 52.6658231,121.991511 C54.5619497,121.160936 53.4067456,115.026136 55.4369492,114.537153 C56.636041,114.248347 58.0195534,114.901774 59.0517715,114.537153 C60.6180859,113.983869 57.8777311,111.907501 59.0517715,111.137729 C60.3447682,110.289963 63.0529142,110.289963 67.1762095,111.137729 C69.4823125,110.124095 70.1188476,107.372293 69.0858149,102.882324 C68.2741347,102.134854 63.672147,98.2617265 61.9191503,98.5469637 C60.0946558,98.8438346 61.0950541,103.307398 59.0517715,102.882324 C56.6624815,102.385268 54.7441661,98.0463576 52.6658231,98.5469637 C50.7339816,99.0122823 51.6043829,106.186085 50.1549356,107.350206 C48.6095715,108.591362 46.0786158,103.724878 44.9620449,100.75369 C44.5448004,99.6434056 43.462255,102.597935 41.7144087,109.617277 C22.2301757,91.1872641 9.6587061,78.8217068 4,72.520605 Z" fill="#FFFFFF" mask="url(#mask-2)"></path>
            </g>
        </g>
    </g>
</svg>