<?xml version="1.0" encoding="UTF-8"?>
<svg width="411px" height="71px" viewBox="0 0 411 71" version="1.1" xmlns="http://www.w3.org/2000/svg" xmlns:xlink="http://www.w3.org/1999/xlink">
    <!-- Generator: Sketch 49.3 (51167) - http://www.bohemiancoding.com/sketch -->
    <title>Ciel†Sp@da</title>
    <desc>Created with Sketch.</desc>
    <defs></defs>
    <g id="Assets" stroke="none" stroke-width="1" fill="none" fill-rule="evenodd">
        <g id="twitter-card" transform="translate(-45.000000, -338.000000)" fill="#FFFFFF">
            <path d="M86.976,356.864 L86.976,341.168 C84.6,342.032 84.24,342.176 83.232,342.176 C82.008,342.176 81.288,342.032 77.904,340.952 C74.736,339.944 71.568,339.368 68.76,339.368 C63.936,339.368 58.824,340.952 55.152,343.76 C48.672,348.512 45,357.08 45,367.16 C45,375.152 47.304,381.704 51.768,386.528 C56.016,391.064 61.848,393.584 68.328,393.584 C74.664,393.584 80.136,391.64 83.808,388.112 C86.328,385.664 88.128,382.784 89.712,378.608 L87.624,377.672 C84.816,385.808 78.336,390.704 70.344,390.704 C59.472,390.704 52.272,380.84 52.272,365.792 C52.272,358.808 53.712,352.688 56.448,348.296 C59.04,343.976 63.864,341.312 69.048,341.312 C73.728,341.312 78.12,343.472 81.072,347.144 C83.016,349.736 84.024,352.4 84.672,356.864 L86.976,356.864 Z M93.888,356.216 L93.888,357.8 C96.408,357.8 97.56,357.944 98.136,358.448 C98.928,359.096 99.216,360.752 99.216,364.352 L99.216,383.576 C99.216,390.272 98.856,390.848 93.888,390.992 L93.888,392.576 L110.304,392.576 L110.304,390.992 C105.48,390.848 105.12,390.272 105.12,383.576 L105.12,368.888 C105.12,365.864 105.336,359.6 105.552,355.424 L93.888,356.216 Z M97.848,344.192 C97.848,346.496 99.648,348.296 101.952,348.296 C104.184,348.296 105.984,346.496 105.984,344.192 C105.984,341.96 104.184,340.16 101.952,340.16 C99.648,340.16 97.848,341.96 97.848,344.192 Z M148.176,372.272 L122.76,372.272 C122.832,377.24 123.264,380.12 124.416,383.072 C126.504,388.4 130.032,390.992 135.216,390.992 C140.328,390.992 144.216,388.328 147.096,382.856 L148.752,383.792 C145.512,390.416 140.616,393.512 133.56,393.512 C123.264,393.512 116.208,385.88 116.208,374.864 C116.208,363.2 123.12,355.208 133.272,355.208 C139.824,355.208 144.792,358.52 147.024,364.352 C147.744,366.296 148.032,368.024 148.176,372.272 Z M122.904,370.328 L141.912,370.328 C141.84,366.512 141.48,364.424 140.544,362.336 C138.96,358.808 136.512,357.008 133.128,357.008 C129.672,357.008 126.792,358.952 124.848,362.624 C123.768,364.712 123.336,366.584 122.904,370.328 Z M153.864,392.576 L170.136,392.576 L170.136,390.992 C165.312,390.848 164.952,390.272 164.952,383.576 L164.952,354.2 C164.952,350.384 165.096,344.624 165.384,339.8 L153.864,340.376 L153.864,341.96 C156.312,342.032 157.392,342.176 157.896,342.608 C158.688,343.256 158.976,344.984 158.976,348.512 L158.976,383.576 C158.976,390.272 158.616,390.848 153.864,390.992 L153.864,392.576 Z M209.52,394.808 C209.52,394.52 209.88,390.272 210.456,382.064 C210.672,379.904 210.888,377.672 211.176,375.296 C212.328,366.368 212.4,365.936 212.976,364.784 C213.192,364.352 213.264,363.92 213.264,363.704 C213.264,363.488 212.976,362.984 212.76,362.696 C210.24,359.672 209.808,358.592 209.52,354.848 C212.976,355.28 213.768,355.496 218.304,357.08 C220.176,357.728 221.256,358.016 222.048,358.016 C223.416,358.016 223.848,357.08 223.848,353.984 L223.848,353.336 L223.92,352.76 C223.92,350.672 223.2,349.664 221.904,349.664 C221.184,349.664 221.184,349.664 218.16,350.816 C215.352,351.968 213.552,352.328 209.52,352.688 C210.24,347.936 210.744,345.92 211.824,343.688 C213.12,341.096 213.12,341.024 213.12,340.232 C213.12,338.72 211.68,338 208.512,338 C205.344,338 203.904,338.72 203.904,340.232 C203.904,341.024 203.904,341.096 205.2,343.688 C206.28,345.92 206.856,347.936 207.504,352.688 C203.472,352.328 201.672,351.896 198.936,350.816 C196.272,349.736 195.768,349.592 195.192,349.592 C193.824,349.592 193.176,350.672 193.176,352.832 C193.176,356.936 193.536,358.016 195.048,358.016 C195.768,358.016 196.92,357.728 198.792,357.08 C203.328,355.496 204.048,355.28 207.504,354.848 C207.36,357.944 206.712,359.816 205.416,361.4 C203.904,363.128 203.832,363.272 203.832,363.704 C203.832,363.992 203.904,364.352 204.12,364.784 C204.696,365.936 204.696,365.936 205.92,375.296 C206.208,377.672 206.424,379.904 206.568,382.064 C207.216,390.272 207.504,394.52 207.504,394.808 L209.52,394.808 Z M248.688,392.72 C251.208,392.216 252.504,392 253.656,392 C254.376,392 255.168,392.072 256.032,392.216 C261.072,393.224 262.872,393.44 265.68,393.44 C270.432,393.44 274.392,392.144 277.416,389.48 C280.152,387.176 281.52,383.936 281.52,379.688 C281.52,376.376 280.944,374 279.504,371.768 C277.488,368.6 274.104,366.224 265.104,361.976 C256.536,357.944 254.232,355.568 254.232,350.816 C254.232,348.44 255.024,346.208 256.32,344.552 C258.048,342.536 260.496,341.528 263.952,341.528 C268.632,341.528 272.304,343.328 274.32,346.64 C275.472,348.584 276.048,350.672 276.336,354.2 L278.712,354.2 L279.144,340.016 C277.2,340.736 275.904,341.096 274.824,341.096 C274.104,341.096 273.24,340.952 272.16,340.736 C267.624,339.656 266.4,339.512 263.664,339.512 C259.344,339.512 256.104,340.592 253.368,342.968 C250.416,345.56 248.832,349.16 248.832,353.408 C248.832,356.864 249.912,359.672 252,361.904 C254.016,364.064 256.248,365.432 262.368,368.384 C273.096,373.568 275.76,376.304 275.76,381.992 C275.76,387.896 271.872,391.352 265.32,391.352 C260.568,391.352 256.824,389.912 254.52,387.248 C252.576,384.944 251.856,382.64 251.568,378.176 L249.192,378.176 L248.688,392.72 Z M297.576,355.424 L297.576,361.616 C300.312,357.368 304.344,355.208 309.384,355.208 C318.6,355.208 324.144,362.048 324.144,373.352 C324.144,378.968 322.704,384.08 320.112,387.68 C317.52,391.208 313.128,393.224 308.232,393.224 C303.984,393.224 301.536,392.144 297.576,388.544 L297.576,399.056 C297.576,405.752 297.936,406.184 303.12,406.4 L303.12,408.056 L286.488,408.056 L286.488,406.4 C291.384,406.256 291.744,405.752 291.744,399.056 L291.744,364.28 C291.744,358.88 290.88,357.8 286.776,357.8 L286.776,356.216 L297.576,355.424 Z M297.288,374.504 C297.288,385.664 300.816,391.28 307.656,391.28 C314.208,391.28 317.448,385.52 317.448,374.144 C317.448,362.768 314.424,357.224 308.304,357.224 C304.992,357.224 301.824,359.024 300.096,361.904 C298.224,365 297.288,369.104 297.288,374.504 Z M366.336,387.672 L367.12,388.848 C362.416,392.264 357.824,393.776 352,393.776 C339.344,393.776 331,385.936 331,374.064 C331,361.52 340.688,351.944 353.344,351.944 C364.488,351.944 372.216,359.336 372.216,370.032 C372.216,374.736 370.704,378.824 367.792,381.736 C365.328,384.2 362.08,385.6 358.776,385.6 C356.144,385.6 354.576,384.368 354.576,382.296 C354.576,382.072 354.632,381.456 354.744,380.784 C352.448,383.864 349.872,385.432 347.016,385.432 C343.32,385.432 341.248,382.8 341.248,378.096 C341.248,368.632 347.8,359.672 354.744,359.672 C356.368,359.672 357.824,360.288 359.056,361.632 L359.392,360.4 L363.424,360.4 C362.64,363.088 361.632,366.952 360.4,372.328 C359.896,374.568 359.504,376.136 359.28,376.92 C358.776,378.88 358.496,380.672 358.496,381.96 C358.496,383.136 359.168,383.752 360.4,383.752 C362.024,383.752 363.872,383.024 365.384,381.792 C368.632,379.216 370.48,374.792 370.48,369.864 C370.48,360.288 363.256,353.288 353.456,353.288 C342.872,353.288 335.256,361.912 335.256,373.784 C335.256,380.392 337.72,385.936 342.032,389.184 C344.832,391.256 348.192,392.264 352.392,392.264 C357.712,392.264 362.248,390.752 366.336,387.672 Z M357.88,364.936 C357.88,362.36 356.872,360.96 355.024,360.96 C352.784,360.96 350.544,362.976 348.752,366.56 C346.96,370.2 345.784,375.24 345.784,379.216 C345.784,382.072 346.68,383.808 348.248,383.808 C350.208,383.808 352.784,381.512 354.296,378.376 C355.976,374.736 357.88,367.68 357.88,364.936 Z M400.528,340.376 L412.192,339.8 C411.904,344.408 411.76,348.584 411.76,354.128 L411.76,381.992 C411.904,388.76 411.904,388.832 412.264,389.696 C412.696,390.632 413.56,390.992 415.648,390.992 L416.44,390.992 L416.44,392.576 L406.36,393.152 L406.072,386.888 C403.12,391.424 399.088,393.584 393.832,393.584 C389.8,393.584 385.84,391.712 383.248,388.616 C380.584,385.304 379.144,380.696 379.144,375.224 C379.144,363.344 385.768,355.208 395.416,355.208 C399.808,355.208 402.832,356.648 405.856,360.032 L405.856,349.16 C405.856,342.176 405.784,342.032 400.528,341.96 L400.528,340.376 Z M406.072,374.36 C406.072,363.2 402.4,357.008 395.848,357.008 C389.368,357.008 385.84,363.128 385.84,374.432 C385.84,385.592 389.08,391.496 395.2,391.496 C402.04,391.496 406.072,385.16 406.072,374.36 Z M455.824,390.92 L455.824,392.432 C453.016,392.864 449.848,393.152 448.408,393.152 C446.248,393.152 445.672,392 445.384,387.176 C444.232,388.472 443.296,389.264 441.856,390.272 C438.688,392.576 436.168,393.368 432.496,393.368 C429.328,393.368 426.952,392.648 425.152,391.136 C423.208,389.408 421.984,386.528 421.984,383.504 C421.984,377.816 425.584,374.144 432.568,372.56 C436.312,371.696 440.128,371.192 445.384,370.832 L445.384,366.296 C445.384,362.984 445.096,361.256 444.376,359.744 C443.44,357.872 441.424,356.936 438.472,356.936 C433.72,356.936 431.272,359.096 430.984,363.56 C430.912,365.072 430.768,365.576 430.192,366.008 C429.688,366.368 428.752,366.584 427.672,366.584 C425.224,366.584 424.144,365.936 424.144,364.424 C424.144,361.832 426.016,359.24 429.04,357.512 C431.776,356 435.304,355.208 439.552,355.208 C444.16,355.208 447.472,356.288 449.2,358.376 C450.64,360.176 451.288,362.552 451.288,366.512 C451.288,366.728 451.288,366.728 451.144,373.784 L451.072,380.624 L451,383.936 C451,386.96 451.36,389.552 451.792,390.128 C452.224,390.704 453.088,390.92 455.824,390.92 Z M445.384,375.872 L445.384,372.488 C438.976,373.064 436.168,373.64 433.288,375.08 C430.12,376.592 428.464,379.472 428.464,383.288 C428.464,387.824 430.912,390.92 434.512,390.92 C438.184,390.92 441.928,388.76 443.728,385.664 C444.88,383.648 445.384,380.624 445.384,375.872 Z" id="Ciel†Sp@da"></path>
        </g>
    </g>
</svg>