<?xml version="1.0" encoding="UTF-8"?>
<svg width="180px" height="180px" viewBox="0 0 180 180" version="1.1" xmlns="http://www.w3.org/2000/svg" xmlns:xlink="http://www.w3.org/1999/xlink">
    <!-- Generator: Sketch 49.3 (51167) - http://www.bohemiancoding.com/sketch -->
    <title>mvp-icon</title>
    <desc>Created with Sketch.</desc>
    <defs>
        <path d="M73.1612853,74.6702941 L41.0184667,74.6702941 L41.0184667,87.0329166 L73.1612853,87.0329166 L73.1612853,89.5054411 C73.1612853,89.5054411 82.9986651,99.802395 87.9964324,99.802395 C92.8887632,99.802395 102.831579,89.5054411 102.831579,89.5054411 L102.831579,87.0329166 L134.974398,87.0329166 L134.974398,74.6702941 L102.831579,74.6702941 L102.831579,67.2527206 L73.1612853,67.2527206 L73.1612853,74.6702941 Z M139.525706,69.7252451 L139.919447,69.7252451 L139.919447,74.0154526 C140.100682,77.3909642 139.919466,79.6151138 139.919447,79.6153431 L139.919447,129.065833 L36.0734177,129.065833 L36.0734177,79.6153431 C36.0748255,79.6325242 35.9075262,77.6017009 36.0734177,74.462515 L36.0734177,69.7252451 L36.5328985,69.7252451 C37.6713693,61.7099389 41.1125072,50.8230574 51.094487,45 C69.0613374,45 113.126119,44.9999999 125.474254,45 C135.183859,50.6222857 138.46715,61.6271168 139.525706,69.7252451 L139.525706,69.7252451 Z M36.0734177,79.6153431 L36.0734087,79.6152336 L36.0734177,79.6153431 Z M90.4689569,89.5282428 C90.4689569,90.8811874 89.3714902,94.3502853 87.9964324,94.3502853 C86.6308948,94.3502853 85.5239079,90.8629185 85.5239079,89.5282428 L85.5239079,86.6108426 C82.6429412,85.592567 80.5788588,82.8450012 80.5788588,79.6153431 C80.5788588,75.5187304 83.8998196,72.1977696 87.9964324,72.1977696 C92.0930451,72.1977696 95.4140059,75.5187304 95.4140059,79.6153431 C95.4140059,82.8450012 93.3499236,85.592567 90.4689569,86.6108426 L90.4689569,89.5282428 Z" id="path-1"></path>
    </defs>
    <g id="mvp-icon" stroke="none" stroke-width="1" fill="none" fill-rule="evenodd">
        <g id="Group" transform="translate(3.000000, 3.000000)">
            <circle id="Oval-2" fill="#6FB7FF" cx="87.5" cy="87.5" r="87.5"></circle>
            <mask id="mask-2" fill="white">
                <use xlink:href="#path-1"></use>
            </mask>
            <use id="TreasureBOx" fill="#FFFFFF" xlink:href="#path-1"></use>
        </g>
    </g>
</svg>