<?xml version="1.0" encoding="UTF-8"?>
<svg width="359px" height="240px" viewBox="0 0 359 240" version="1.1" xmlns="http://www.w3.org/2000/svg" xmlns:xlink="http://www.w3.org/1999/xlink">
    <!-- Generator: Sketch 49.3 (51167) - http://www.bohemiancoding.com/sketch -->
    <title>grancypher</title>
    <desc>Created with Sketch.</desc>
    <defs></defs>
    <g id="Assets" stroke="none" stroke-width="1" fill="none" fill-rule="evenodd">
        <g id="twitter-card" transform="translate(-71.000000, -92.000000)" fill="#FFFFFF">
            <path d="M204.281627,212.701596 L206.743945,212.512065 C206.638647,212.013773 206.538015,211.515508 206.44229,211.017629 L204.230587,211.18787 L204.281627,212.701596 Z M204.298707,213.20816 L204.391114,215.948753 L207.464367,215.630625 C207.272209,214.865909 207.083321,214.06715 206.900872,213.239111 C206.88417,213.163309 206.867573,213.087505 206.851083,213.011698 L204.298707,213.20816 Z M208.658003,212.364735 C208.570358,211.873149 208.483645,211.373668 208.398186,210.867079 L206.950147,210.978538 C207.046226,211.476372 207.147239,211.974612 207.252943,212.472886 L208.658006,212.364735 Z M208.748127,212.865677 L207.36049,212.972487 C207.371963,213.02502 207.383486,213.077551 207.395061,213.130081 C207.582063,213.978783 207.77586,214.796498 207.972982,215.577976 L209.238738,215.446952 C209.073767,214.617051 208.909572,213.755024 208.748127,212.865677 Z M200.899085,212.961959 L203.776592,212.74047 L203.725552,211.226744 L200.884443,211.445431 L200.899085,212.961959 Z M200.903985,213.469461 L200.931379,216.306887 L203.88653,216.000985 L203.793672,213.247034 L200.903985,213.469461 Z M198.867622,213.118325 L200.393379,213.000884 L200.378738,211.484357 L198.852981,211.601798 L198.867622,213.118325 Z M198.872522,213.625828 L198.900436,216.517119 L200.425802,216.359221 L200.398279,213.508386 L198.872522,213.625828 Z M195.703608,213.361868 L198.361917,213.157251 L198.347275,211.640723 L195.815208,211.835623 C195.778561,212.352777 195.741303,212.861871 195.703608,213.361868 Z M195.664703,213.872742 C195.584518,214.915163 195.502662,215.915436 195.420804,216.863806 C195.420412,216.868352 195.420019,216.872895 195.419627,216.877434 L198.39486,216.569454 L198.366816,213.664753 L195.664699,213.872742 Z M204.213507,210.681305 L206.347679,210.517032 C206.221817,209.83931 206.10521,209.162528 205.998468,208.487597 L204.144544,208.636007 L204.213507,210.681305 Z M208.314399,210.365649 C208.305343,210.310933 208.296303,210.256139 208.287279,210.201267 C208.184397,209.575675 208.085413,208.951096 207.990575,208.328126 L206.504469,208.447091 C206.611638,209.122433 206.728749,209.799707 206.855184,210.477968 L208.314398,210.365649 Z M200.879544,210.937929 L203.708472,210.720179 L203.639561,208.676431 L200.859858,208.89895 L200.879544,210.937929 Z M198.848081,211.094296 L200.373838,210.976854 L200.354168,208.939432 L198.828456,209.061567 L198.848081,211.094296 Z M195.851008,211.324988 L198.342376,211.133221 L198.322766,209.102048 L195.98599,209.289111 C195.944433,209.946865 195.900682,210.607116 195.854886,211.268999 C195.853594,211.287672 195.852301,211.306335 195.851008,211.324988 Z M195.305089,211.874888 L195.262527,211.878164 L195.223714,211.373272 L195.341002,211.364245 C195.344018,211.320891 195.34703,211.277483 195.350037,211.234023 C195.394076,210.597538 195.436219,209.962575 195.476335,209.329909 L195.263359,209.346958 L195.223004,208.842188 L195.508298,208.819349 C195.624402,206.940425 195.722234,205.083694 195.798308,203.269605 L195.771305,203.271954 L195.727465,202.767474 L195.819169,202.759495 C195.852784,201.91584 195.881579,201.081911 195.905199,200.259792 C195.908726,200.137004 195.912173,200.013254 195.915538,199.888553 L186.552463,200.740354 L186.552463,210.750207 L187.497886,210.724709 C187.497886,210.724709 187.497886,216.538096 188.724148,217.229975 C190.161072,217.704184 192.35933,217.980804 194.800186,218.132135 C194.819947,217.916092 194.840612,217.686589 194.862075,217.444235 L194.763697,217.454419 L194.711624,216.950723 L194.907086,216.93049 C194.91025,216.893983 194.91343,216.857229 194.916623,216.820232 C195.048439,215.293067 195.180261,213.630958 195.305088,211.874889 Z M208.904832,210.828082 C209.175592,212.430367 209.458862,213.960947 209.744312,215.394617 L209.890676,215.379466 L209.942749,215.883162 L209.84448,215.893334 C209.871963,216.028979 209.899455,216.1637 209.926947,216.297475 C210.005218,216.67834 210.080264,217.035699 210.151467,217.368044 L212.594463,213.974392 L223.958518,213.933364 C217.269236,202.93821 211.546145,192.895185 207.05807,184.523377 C207.026862,186.211276 207.016212,187.906073 207.02966,189.587486 L207.362637,189.555754 L207.410616,190.059856 L207.034467,190.095703 C207.051219,191.628479 207.088364,193.148388 207.148598,194.639986 L207.362637,194.619589 L207.410616,195.123691 L207.169998,195.146622 C207.172519,195.203771 207.175074,195.260876 207.177665,195.317936 C207.213994,196.118112 207.257012,196.900314 207.306953,197.663196 L207.362637,197.657889 L207.410616,198.161992 L207.341252,198.168602 C207.347858,198.262558 207.354572,198.35621 207.361394,198.449554 C207.440197,199.527752 207.53749,200.622455 207.65174,201.729914 L207.870953,201.71084 L207.914793,202.215319 L207.704773,202.233594 C207.812936,203.240679 207.934836,204.257776 208.069336,205.282092 L208.377995,205.256354 L208.420021,205.760989 L208.136255,205.784651 C208.329855,207.218783 208.547679,208.666116 208.786621,210.119041 C208.798023,210.188373 208.80945,210.257581 208.820903,210.326662 L208.885788,210.321668 L208.924601,210.82656 L208.904831,210.828081 Z M204.127461,208.129373 L205.920882,207.985807 C205.820136,207.318905 205.729199,206.654037 205.648661,205.992084 L204.059863,206.124569 L204.127461,208.129373 Z M207.915008,207.826174 C207.815464,207.15741 207.720787,206.490691 207.631282,205.826759 L206.153388,205.949996 C206.234173,206.61237 206.325453,207.277784 206.426626,207.945321 L207.915008,207.826174 Z M200.854958,208.391341 L203.622478,208.169797 L203.554937,206.166673 L200.835669,206.393424 L200.854958,208.391341 Z M198.823556,208.553958 L200.349267,208.431823 L200.329994,206.435591 L198.804332,206.562811 L198.823556,208.553958 Z M196.017835,208.77856 L198.317865,208.594439 L198.298657,206.604978 L196.13403,206.78548 C196.097711,207.446421 196.058927,208.111084 196.017835,208.77856 Z M204.40822,216.456068 L204.468524,218.244554 C205.940365,218.209034 207.21459,218.159634 208.133125,218.118385 C208.109893,218.037565 208.086352,217.955101 208.062521,217.87102 C207.90467,217.314092 207.746832,216.731795 207.590675,216.126636 L204.40822,216.456068 Z M209.338742,215.945686 L208.099771,216.073937 C208.248674,216.648696 208.399032,217.202407 208.549377,217.732852 C208.584535,217.856895 208.619047,217.977367 208.652861,218.094185 C209.297558,218.063059 209.667083,218.04092 209.667083,218.04092 L209.753346,217.92109 C209.654163,217.467328 209.546157,216.958554 209.431262,216.399474 C209.400417,216.249385 209.369573,216.098112 209.338742,215.945686 Z M200.936289,216.815464 L200.950541,218.291659 C201.999048,218.289763 203.015924,218.276092 203.962565,218.256024 L203.903635,216.5083 L200.936289,216.815464 Z M198.905346,217.025697 L198.917452,218.279543 C199.429451,218.286842 199.939851,218.29068 200.444459,218.291642 L200.430712,216.867799 L198.905346,217.025697 Z M195.374799,217.391161 C195.350746,217.663894 195.327656,217.920959 195.30567,218.161528 C196.318028,218.216611 197.365115,218.251508 198.411289,218.271186 L198.39977,217.078031 L195.374798,217.391161 Z M205.317677,202.441301 L203.939714,202.561201 L204.042778,205.617855 L205.589386,205.488888 C205.472692,204.464376 205.381386,203.447416 205.317677,202.441301 Z M205.821995,202.397419 C205.885514,203.403717 205.976924,204.421324 206.093979,205.446811 L207.564455,205.324193 C207.430229,204.300609 207.308539,203.284124 207.200509,202.277471 L205.821995,202.397419 Z M205.196416,198.373004 L203.802974,198.505798 L203.922625,202.054393 L205.287939,201.935594 C205.245592,201.155054 205.220203,200.381425 205.212816,199.616259 C205.208884,199.208978 205.203405,198.794471 205.196416,198.373004 Z M205.701741,198.324847 C205.709067,198.761163 205.714783,199.1901 205.718851,199.611368 C205.726112,200.363485 205.750958,201.124109 205.79238,201.891701 L207.147515,201.773788 C207.033124,200.664205 206.935672,199.567207 206.856684,198.48649 C206.85013,198.396814 206.843676,198.306859 206.837321,198.216627 L205.701741,198.324847 Z M205.18733,197.865195 C205.171665,197.048448 205.150525,196.206625 205.124163,195.341589 L203.700857,195.477229 L203.785878,197.998752 L205.18733,197.865195 Z M205.692554,197.817047 L206.802955,197.711227 C206.752372,196.940171 206.708844,196.149616 206.672128,195.340917 C206.669917,195.292208 206.667731,195.243467 206.66557,195.194693 L205.628987,195.293479 C205.655456,196.158283 205.676729,197.000083 205.692554,197.817047 Z M205.108198,194.834435 C205.086153,194.155449 205.061142,193.466888 205.033347,192.770099 L203.614139,192.905349 L203.68376,194.970183 L205.108198,194.834435 Z M205.612959,194.786332 L206.644071,194.688068 C206.616356,194.005147 206.59347,193.316358 206.575157,192.623165 L205.537889,192.722016 C205.565746,193.418719 205.59083,194.107269 205.612959,194.786332 Z M205.012706,192.263391 C204.985721,191.614271 204.956384,190.958367 204.924841,190.296749 L203.530662,190.429613 L203.597042,192.398303 L205.012706,192.263391 Z M205.517203,192.215313 L206.562581,192.115689 C206.547435,191.461598 206.536279,190.803923 206.5289,190.143883 L205.429183,190.248686 C205.460769,190.910246 205.490157,191.566142 205.517203,192.215313 Z M204.900328,189.79041 C204.866823,189.10867 204.831035,188.421201 204.793121,187.729157 L203.443943,187.857733 L203.513565,189.922568 L204.900328,189.79041 Z M205.404635,189.74235 L206.523966,189.635679 C206.518284,188.947123 206.516639,188.256338 206.518789,187.564702 L205.297307,187.681109 C205.335254,188.373107 205.371083,189.060569 205.404635,189.74235 Z M204.765068,187.223156 C204.731487,186.624475 204.696354,186.0226 204.659769,185.418273 C204.604464,184.504728 204.547378,183.610838 204.489313,182.742502 L203.275369,182.85819 L203.426847,187.350688 L204.765068,187.223156 Z M205.269228,187.17511 L206.521051,187.055812 C206.527685,185.90712 206.544612,184.757013 206.570724,183.611783 C206.388586,183.270128 206.208583,182.931385 206.030735,182.595606 L204.993291,182.694474 C205.051752,183.568307 205.109228,184.46803 205.164901,185.387654 C205.20113,185.986103 205.235938,186.58216 205.269228,187.17511 Z M204.455212,182.237077 C204.407221,181.532085 204.358677,180.845116 204.310024,180.179444 L203.188651,180.28631 L203.258273,182.351145 L204.455212,182.237077 Z M204.959173,182.18905 L205.774646,182.111336 C205.451242,181.498788 205.135163,180.896356 204.82653,180.304358 C204.870979,180.915882 204.915306,181.544941 204.959173,182.18905 Z M204.272783,179.674318 C204.259738,179.498904 204.24696,179.328693 204.234473,179.163871 C204.12222,178.946691 204.011027,178.731013 203.900902,178.516852 C203.642467,178.514241 203.385062,178.511588 203.12872,178.508893 L203.171554,179.779265 L204.272783,179.674318 Z M203.434849,202.60513 L200.801307,202.834281 L200.830767,205.885694 L203.537852,205.659959 L203.434849,202.60513 Z M203.29825,198.553898 L200.762315,198.795571 L200.796404,202.326414 L203.417761,202.098323 L203.29825,198.553898 Z M203.281153,198.046852 L203.196133,195.525329 L200.733008,195.760063 L200.757408,198.287364 L203.281153,198.046852 Z M203.179036,195.018283 L203.109414,192.953448 L200.708121,193.18229 L200.728102,195.251856 L203.179036,195.018283 Z M203.092318,192.446403 L203.025938,190.477713 L200.684164,190.700883 L200.703215,192.674083 L203.092318,192.446403 Z M203.008841,189.970668 L202.939219,187.905833 L200.659277,188.12311 L200.679258,190.192676 L203.008841,189.970668 Z M202.922123,187.398788 L202.770645,182.90629 L200.610898,183.112113 L200.654371,187.614903 L202.922123,187.398788 Z M202.753549,182.399245 L202.683927,180.33441 L200.586011,180.53434 L200.605992,182.603906 L202.753549,182.399245 Z M202.66683,179.827365 L202.622192,178.503499 C201.928585,178.496018 201.243019,178.488232 200.566179,178.480153 L200.581105,180.026133 L202.66683,179.827365 Z M200.29565,202.87828 L198.770041,203.011027 L198.79943,206.055081 L200.325092,205.927861 L200.29565,202.87828 Z M200.256699,198.843756 L198.731212,198.989134 L198.734717,199.352212 L200.26295,199.491242 L200.256699,198.843756 Z M200.290747,202.370412 L200.262967,199.493048 L198.737417,199.631834 L198.765138,202.503159 L200.290747,202.370412 Z M200.251792,198.335548 L200.227392,195.808248 L198.701905,195.953626 L198.726305,198.480926 L200.251792,198.335548 Z M200.222486,195.30004 L200.207341,193.731383 L198.68179,193.870169 L198.696999,195.445418 L200.222486,195.30004 Z M200.202505,193.230475 L198.677018,193.375853 L198.678993,193.580417 L200.207226,193.719447 L200.202505,193.230475 Z M200.197598,192.722268 L200.178548,190.749068 L198.653061,190.894446 L198.672111,192.867646 L200.197598,192.722268 Z M200.173642,190.240861 L200.154604,188.269025 L198.629054,188.407812 L198.648155,190.386238 L200.173642,190.240861 Z M200.153661,188.171295 L200.013032,188.184697 L200.153914,188.197514 L200.153661,188.171295 Z M200.148754,187.663088 L200.105282,183.160298 L198.579795,183.305676 L198.623267,187.808466 L200.148754,187.663088 Z M200.100375,182.652091 L200.080395,180.582525 L198.554908,180.727903 L198.574888,182.797468 L200.100375,182.652091 Z M200.075488,180.074318 L200.060038,178.474036 C199.545704,178.467744 199.036575,178.461282 198.532961,178.454653 L198.550001,180.219696 L200.075488,180.074318 Z M198.264384,203.055025 L196.306658,203.225372 C196.264795,204.230014 196.216255,205.247718 196.161629,206.27504 L198.293756,206.097248 L198.264384,203.055025 Z M198.225595,199.037319 L196.783762,199.174724 L198.22819,199.306131 L198.225595,199.037319 Z M198.231779,199.677834 L196.423019,199.842385 C196.419137,199.987652 196.415147,200.131644 196.411048,200.274344 C196.387974,201.077451 196.359976,201.891736 196.327383,202.715274 L198.259481,202.547157 L198.231779,199.677834 Z M198.220689,198.529111 L198.196289,196.001811 L196.495101,196.163933 C196.483292,197.041981 196.468564,197.887454 196.450792,198.697781 L198.220689,198.529111 Z M198.191382,195.493603 L198.176153,193.916169 L196.517341,194.067079 C196.513052,194.606804 196.507807,195.13616 196.501581,195.65464 L198.191382,195.493603 Z M198.172466,193.534336 L198.171402,193.424038 L197.579794,193.480418 L198.172466,193.534336 Z M198.166495,192.915831 L198.147445,190.942631 L196.531361,191.096642 C196.530225,191.761068 196.527837,192.420194 196.524114,193.072349 L198.166495,192.915831 Z M198.142538,190.434423 L198.123416,188.453812 L196.529944,188.598777 C196.531775,189.265502 196.532481,189.929083 196.531985,190.587908 L198.142538,190.434423 Z M198.117651,187.856651 L198.074179,183.353861 L196.495745,183.504284 C196.510929,184.959811 196.521778,186.419697 196.527495,187.867602 L197.282243,187.936265 L198.117651,187.856651 Z M198.069272,182.845653 L198.049291,180.776088 L196.464371,180.92713 C196.466781,181.100251 196.469166,181.276182 196.471521,181.454815 C196.478277,181.967319 196.484538,182.481333 196.490266,182.996132 L198.069272,182.845653 Z M198.044385,180.267881 L198.026814,178.447911 C197.486084,178.440621 196.951927,178.433138 196.424732,178.425469 C196.426433,178.51988 196.428186,178.618807 196.429986,178.722134 C196.439113,179.246143 196.448241,179.813542 196.457115,180.419147 L198.044385,180.267881 Z M195.958933,180.975298 L195.773563,180.992963 L195.725584,180.488861 L195.951707,180.467312 C195.942653,179.846876 195.933329,179.266244 195.924005,178.730959 C195.922101,178.621666 195.920249,178.517306 195.918457,178.418016 C193.340197,178.379599 190.934384,178.336695 188.74773,178.290012 L188.74773,183.015788 L186.552463,183.015788 L186.552463,186.960128 L196.021248,187.821546 C196.012747,185.709808 195.993342,183.572833 195.965507,181.461495 C195.96334,181.29711 195.961147,181.135016 195.958933,180.975298 Z M196.024008,188.644805 L186.552463,189.506474 L186.552463,192.477211 L195.74126,193.313158 L195.725584,193.148448 L196.017769,193.120603 C196.026282,191.657828 196.028054,190.15957 196.024008,188.644805 Z M196.010898,194.113152 L186.552463,194.973629 L186.552463,198.243937 L195.93551,199.097555 C195.971698,197.562255 195.996529,195.894614 196.010898,194.113152 Z M163.508024,180.286891 L161.092797,180.286891 L167.93594,196.80156 L163.508024,180.286891 Z M164.031979,180.286891 L169.254398,199.764794 C169.507892,199.863882 169.748218,200.079606 169.944645,200.41129 L176.007007,210.648106 C176.084707,210.77931 176.14328,210.907078 176.183596,211.029852 L184.357196,210.809413 L184.357196,200.790283 L170.08796,199.492146 L184.357196,198.194008 L184.357196,195.029799 L168.715918,193.72542 L184.357196,192.421042 L184.357196,189.531438 L170.08796,188.233301 L184.357196,186.935164 L184.357196,183.015788 L181.338704,183.015788 L181.338704,178.086931 C180.391435,178.052534 179.55234,178.017044 178.832583,177.98063 C174.992206,174.449905 173.179342,166.923717 173.179342,166.923717 C173.179342,166.923717 167.548065,165.501981 166.967636,166.314435 C163.18808,171.604857 164.485098,180.286891 164.485098,180.286891 L164.031979,180.286891 Z M160.544962,180.286891 L160.073984,180.286891 L168.103512,200.137308 C168.260155,199.952494 168.433865,199.826615 168.613751,199.759431 L160.544962,180.286891 Z M159.528044,180.286891 L158.581075,180.286891 L167.656565,200.839371 L167.766481,200.653769 L159.528044,180.286891 Z M158.027816,180.286891 L154.278392,180.286891 C154.278392,174.185489 149.192457,163.785861 149.192457,163.785861 C149.192457,163.785861 139.356905,158.318404 129.226744,153.199846 L167.013054,200.634982 L158.027816,180.286891 Z M161.604948,211.423033 C161.604854,211.189776 161.68297,210.926298 161.847718,210.648106 L166.21237,203.278018 L120.591139,152.03939 L118.515298,153.143135 L117.815285,151.826602 L121.953318,149.62637 C115.056632,146.354149 109.175744,143.967593 107.725437,144.548426 C105.717692,143.722357 109.994777,147.099728 107.725437,146.714702 C102.588854,145.041859 80.8253747,136.889494 79.3884824,141.052563 C79.3884824,139.227667 77.9119294,135.35583 71,132.377267 C71,131.55625 77.6469002,132.990572 79.102283,134.125467 C90.8822816,135.448081 101.582333,123.341015 107.137227,118.194835 C103.468355,119.757729 100.465644,120.581833 101.733204,119.757729 C107.137227,108.228301 132.392179,101.775329 132.392179,101.775329 C132.392179,101.775329 122.305794,109.250833 120.165462,110.191573 C121.686768,114.237452 122.287304,114.197226 136.256674,111.949963 C132.958522,112.598078 122.201283,116.217618 123.37663,119.390604 C124.990387,121.272084 136.128849,121.240172 132.075698,121.862594 C128.022546,122.485017 113.160277,122.735487 114.484887,124.840085 C119.095377,123.879824 123.116691,123.529893 126.599782,123.584197 C127.336866,123.595689 120.165462,125.464384 120.919014,127.596603 C122.059255,129.357943 130.435916,125.593913 133.824247,126.001528 C134.308905,126.059832 129.133706,129.278608 129.593695,129.357943 C131.685761,128.425778 133.867594,128.095552 135.927969,128.104815 C136.664698,128.108128 136.281066,129.47956 136.69428,129.665265 C140.813354,131.516442 143.518209,131.434881 145.823183,130.449126 C142.776821,128.045251 151.750565,121.203969 158.703763,120.654757 C154.278392,123.584197 156.150211,129.156815 156.683217,130.887316 C163.473968,126.568335 172.849408,123.478596 183.536212,121.189297 C183.534722,121.157058 183.533971,121.12467 183.533971,121.092142 C183.533971,119.876566 184.583396,118.855173 186.003646,118.565573 L186.003646,99.2609679 C186.003646,99.2609679 187.183013,99.2609679 187.183013,100.592968 C187.778458,100.28779 189.963274,99.920934 192.945857,101.926845 C196.012317,101.926845 193.490118,100.215385 196.945949,101.005681 C196.945949,101.699308 195.015711,101.005681 192.945857,104.377649 C190.821143,105.045311 189.932464,103.984298 188.60865,104.377649 C188.155772,104.512216 187.737998,104.675457 187.375688,104.837606 L187.375688,118.519455 C188.445242,118.661612 189.339964,119.212239 189.795543,119.961938 C191.842133,119.594713 193.924764,119.251733 196.035545,118.93034 C196.376021,118.078947 197.252996,117.416643 198.352024,117.192543 L198.352024,97.8879381 C198.352024,97.8879381 199.531391,97.8879381 199.531391,99.2199379 C200.126835,98.9147606 202.311652,98.5479042 205.294235,100.553815 C208.360695,100.553815 205.838496,98.8423547 209.294327,99.6326514 C209.294327,100.326278 207.364089,99.6326514 205.294235,103.00462 C203.169521,103.672281 202.280842,102.611268 200.957028,103.00462 C200.504149,103.139186 200.086376,103.302427 199.724066,103.464576 L199.724066,117.146425 C200.553391,117.256653 201.277602,117.612467 201.773477,118.116248 C212.765751,116.663316 224.306409,115.710114 235.347849,114.903854 C260.686678,106.741835 288.547705,111.495415 298.107514,118.78159 C302.563971,106.662457 312.198278,93.560524 319.446519,92 C307.04133,104.41412 312.198278,124.548316 312.198278,124.548316 C312.198278,124.548316 322.016462,127.999838 330.961761,128.176111 C341.371139,124.110841 368.686535,118.780167 378.629071,117.489243 C379.005129,117.070539 379.271296,116.810292 379.367407,116.795389 C379.774502,116.732267 379.017361,100.882387 380.685431,100.882387 C382.353502,100.882387 381.782452,116.682534 382.353502,116.762469 C385.145906,117.15335 404.234567,105.175423 405.840564,106.574751 C398.555603,112.842235 394.289362,122.668483 395.010726,122.604953 C396.360315,123.138186 422.170816,120.140992 429.1558,121.862594 C436.140783,123.584197 397.490789,126.824567 397.284527,127.596603 C396.103852,132.015853 397.284527,135.530589 396.168136,136.85725 C395.512864,136.842555 413.709805,138.654306 413.986416,140.217108 C414.32974,142.156823 399.855376,140.494822 397.284527,143.284586 C396.293689,144.359796 410.900649,159.821666 413.986416,165.574854 C404.912955,162.981839 398.414391,155.733778 397.284527,155.753784 C396.484981,155.767942 384.796658,163.785861 399.769845,181.631266 C393.760848,183.133952 371.832671,163.792293 370.468398,163.785861 C376.347368,147.740167 373.293176,137.367431 372.304835,137.407273 C368.680592,137.553374 365.131326,137.768463 361.73976,138.044259 L336.250516,188.069715 C336.708958,189.874144 337.781501,190.149643 337.781501,190.149643 C337.781501,190.149643 342.320804,188.563228 342.292357,189.31483 C341.930382,189.943323 342.292357,191.250212 342.292357,192.206506 C339.432507,193.461273 338.335946,205.491106 337.225181,207.799244 C337.225181,201.878858 336.17291,200.659092 335.133889,202.36639 C331.974441,203.482245 331.974441,214.697915 326.494044,226.165395 C319.183365,226.165395 305.829002,232.359852 306.433022,232.888951 C309.273323,234.266228 331.974441,232.596315 337.781501,231.638743 C339.754348,236.151774 344.140326,236.610612 347.107635,237.467147 C339.615804,247.660285 320.240266,252.383293 313.19944,252.383293 C306.158614,252.383293 296.863833,250.41278 294.224528,248.812342 C288.288272,247.935667 281.666882,247.316837 274.799574,246.891418 C274.854933,246.989043 274.884096,247.040276 274.884096,247.040276 C274.884096,247.040276 302.293006,268.947428 306.08488,271.571202 C304.807851,272.480599 268.122168,244.346914 269.286955,248.839332 C271.697171,258.135183 294.45617,287.160285 317.539383,307.617398 C291.393586,289.85473 279.929987,264.779532 279.929987,282.612736 C279.929987,284.077434 284.427181,291.640604 289.650846,293.519761 C289.650846,301.34398 317.963337,332.247555 316.443253,332.015785 C310.580995,326.805109 304.732266,321.086716 298.94877,314.998912 C297.631932,313.612786 300.258235,320.511956 298.94877,319.08916 C297.94596,317.999558 293.005731,308.595234 292.007877,307.485817 C274.997668,288.573812 258.747487,266.88926 244.615196,246.064365 C224.000336,246.06746 207.15989,247.027404 207.15989,247.027404 C207.15989,247.027404 174.416647,250.324934 166.290726,249.661905 C183.282877,248.109469 180.420079,247.027404 182.017221,244.975904 C183.168764,243.416264 172.226684,238.095201 168.479294,242.433653 C160.670446,228.582142 146.285186,224.646348 142.72537,230.400871 C141.920052,226.916462 138.487789,221.206868 133.144658,218.777315 C119.53455,212.588718 97.0480607,212.156327 100.014668,209.3018 C120.435583,213.974392 157.004253,216.661454 157.004253,216.661454 L161.088222,211.436969 L161.604948,211.423033 Z M167.123735,201.7391 L124.003882,150.610451 C123.87711,150.548964 123.750558,150.487696 123.624244,150.42666 L121.05114,151.794804 L166.483104,202.82086 L166.755587,202.360749 L121.675114,151.768357 L122.052833,151.431357 L167.026289,201.903646 L167.123735,201.7391 Z M128.146213,152.655806 C127.136736,152.149385 126.1277,151.648472 125.12852,151.158807 L158.040022,190.183073 L128.146213,152.655806 Z M313.595774,156.204168 C313.459989,156.299734 313.314389,156.382277 313.160785,156.449982 C313.195331,156.760569 313.239021,157.115097 313.292785,157.510198 C313.461617,158.750905 313.693808,160.133895 313.999187,161.623496 C314.871619,165.879125 316.15462,170.134399 317.925922,174.103607 C318.232389,174.790351 318.551626,175.463551 318.883885,176.122268 C319.985167,178.305606 321.253989,180.38004 322.657945,182.341335 C324.46291,184.862831 326.396862,187.073059 328.33034,188.955188 C329.006561,189.61345 329.634163,190.18349 330.196944,190.663222 C330.367532,190.808637 330.521345,190.936465 330.657057,191.046536 L331.974441,190.149643 L331.942227,189.211262 C331.444359,188.830225 330.902787,188.392613 330.327037,187.899235 C328.361782,186.215148 326.396941,184.229105 324.562871,181.951957 C322.762769,179.716982 321.185327,177.316076 319.863722,174.69586 C317.716623,170.427468 316.047083,165.856387 314.797492,161.285563 C314.360154,159.685844 314.006485,158.200184 313.729379,156.866488 C313.680742,156.632403 313.636244,156.41143 313.595774,156.204168 Z M314.035582,155.810933 C314.089663,156.097677 314.152626,156.415841 314.224842,156.763412 C314.499886,158.087184 314.851141,159.562703 315.285615,161.151946 C316.526915,165.692442 318.18519,170.232681 320.344979,174.526221 C321.620338,177.054674 323.178294,179.425921 324.956891,181.634195 C326.770293,183.885681 328.713457,185.849814 330.656206,187.514615 C331.099665,187.894629 331.522317,188.240917 331.919632,188.55307 L331.8024,185.138084 C331.8024,185.138084 334.017694,182.086922 336.38025,183.248023 C336.283349,183.731727 336.209986,184.181935 336.157086,184.600933 L359.794099,138.210683 C350.029877,139.087809 341.760945,140.473858 337.077258,142.159569 C328.895743,146.694528 321.227065,150.350675 314.51848,153.261127 C314.61783,153.532606 314.67205,153.825854 314.67205,154.131775 C314.67205,154.776014 314.431592,155.364054 314.035582,155.810933 Z M312.669391,156.608564 C312.499206,156.644688 312.322702,156.663692 312.141761,156.663692 C311.137325,156.663692 310.269585,156.078055 309.860955,155.229402 C298.913026,159.734226 291.269807,162.029292 289.367714,162.839758 C288.278092,164.42146 287.596474,166.649449 286.788594,168.910591 C286.857595,169.061367 286.93151,169.222057 287.010205,169.392232 C287.463886,170.3733 287.982318,171.466628 288.55679,172.644119 C290.19803,176.008159 291.959029,179.372079 293.769836,182.510808 C295.136366,184.879457 296.479251,187.026924 297.782025,188.900946 C298.788197,190.34831 299.881025,191.783373 301.047352,193.200608 C303.270928,195.902536 305.653924,198.415691 308.036832,200.673773 C308.185632,200.814777 308.33253,200.952966 308.477413,201.088291 L311.139769,194.952566 L325.957287,194.246206 L330.220618,191.343671 C330.112532,191.254711 329.995083,191.156365 329.868776,191.048697 C329.297704,190.561898 328.661869,189.98438 327.977467,189.318154 C326.023449,187.416032 324.069904,185.183411 322.24654,182.636211 C320.827869,180.65436 319.545496,178.557772 318.432111,176.350438 C318.096195,175.684471 317.773529,175.00404 317.463842,174.310081 C315.676122,170.304082 314.382774,166.014492 313.503452,161.725256 C313.195716,160.224154 312.961661,158.830064 312.791354,157.578519 C312.742842,157.222015 312.70241,156.897901 312.669391,156.608564 Z M286.54272,169.587124 C286.408585,169.948981 286.269855,170.310124 286.124341,170.668039 C286.210206,170.877071 286.306144,171.107987 286.411864,171.359431 C286.828319,172.349925 287.309957,173.453817 287.85068,174.642715 C289.395501,178.03934 291.103634,181.435819 292.925942,184.604683 C294.030518,186.525464 295.145254,188.304627 296.263851,189.913713 C297.270023,191.361077 298.362851,192.79614 299.529178,194.213375 C301.752755,196.915303 304.13575,199.428458 306.518659,201.68654 C306.938332,202.084229 307.34288,202.459515 307.729762,202.811346 L308.263609,201.58103 C308.075418,201.406024 307.883753,201.22613 307.688864,201.04145 C305.291667,198.769828 302.894557,196.241788 300.656703,193.52251 C299.481955,192.095042 298.380868,190.649135 297.366594,189.190116 C296.05499,187.303392 294.70475,185.144164 293.331566,182.763982 C291.51429,179.614038 289.748043,176.240094 288.10203,172.866271 C287.525963,171.68551 287.006037,170.589032 286.550934,169.604889 C286.54819,169.598956 286.545452,169.593034 286.54272,169.587124 Z M285.848009,171.323355 C285.737844,171.574779 285.623556,171.823783 285.504355,172.06946 C285.562673,172.215749 285.625056,172.370791 285.691454,172.534238 C286.107064,173.557307 286.593354,174.697561 287.146099,175.925654 C288.725291,179.434318 290.519783,182.942835 292.495344,186.216109 C293.275578,187.508864 294.070764,188.741305 294.879605,189.904812 C295.885776,191.352175 296.978605,192.787238 298.144932,194.204473 C300.368508,196.906402 302.751504,199.419557 305.134412,201.677638 C305.932133,202.433571 306.675203,203.108558 307.346171,203.695377 L307.516945,203.301807 C307.089141,202.914555 306.639235,202.498217 306.17069,202.054216 C303.773493,199.782595 301.376384,197.254555 299.138529,194.535277 C297.963781,193.107809 296.862694,191.661901 295.84842,190.202883 C294.721045,188.58117 293.598737,186.789921 292.48732,184.857245 C290.656199,181.673055 288.941082,178.26269 287.390079,174.852471 C286.847264,173.658974 286.363688,172.550642 285.945408,171.555806 C285.911969,171.476275 285.8795,171.398777 285.848009,171.323355 Z M285.199756,172.668517 C284.135251,174.663839 282.684833,176.376648 280.391826,177.282852 C280.305574,177.29476 280.216863,177.306577 280.125725,177.318303 L280.125725,182.068397 L277.930458,182.068397 L277.930458,186.571519 L291.925286,188.025058 L277.930458,189.478597 L277.930458,192.870189 L291.650878,194.295228 L277.930458,195.720266 L277.930458,199.453867 L291.650878,200.878906 L277.930458,202.303944 L277.930458,212.911703 C283.001336,212.763742 287.811904,212.594691 291.499739,212.408816 C298.400681,211.110874 298.400681,205.491106 298.400681,205.491106 L306.71011,205.161257 L307.134714,204.182705 C307.124744,204.174031 307.114728,204.16531 307.104665,204.156544 C306.404977,203.546987 305.625603,202.840516 304.786444,202.045315 C302.389247,199.773694 299.992137,197.245654 297.754282,194.526376 C296.579535,193.098908 295.478448,191.653 294.464174,190.193981 C293.64889,189.021207 292.847831,187.779664 292.062156,186.477893 C290.075095,183.185565 288.271632,179.659508 286.684678,176.1336 C286.129271,174.899592 285.640539,173.75361 285.222649,172.724929 C285.214965,172.706014 285.207334,172.68721 285.199756,172.668517 Z M240.610917,184.78593 L240.610917,184.004369 L239.578852,184.004369 C239.915362,184.263886 240.259693,184.524533 240.610917,184.78593 Z M237.592424,182.406075 L237.592424,178.595882 C236.331013,178.602784 235.063159,178.608469 233.791781,178.612982 C234.696306,179.786633 236.008629,181.069629 237.592424,182.406075 Z M242.806184,186.369119 C244.160815,187.318213 245.580988,188.267113 247.023077,189.197933 L256.801012,190.265385 L249.904361,191.018289 C258.052147,196.063178 265.980294,200.165788 265.980294,200.165788 C265.980294,200.165788 253.690465,194.299833 246.866652,191.349914 L246.261648,191.415962 C246.412243,192.243476 248.701677,195.02819 248.701677,195.02819 C248.701677,195.02819 245.507568,193.475686 246.052993,194.602336 C245.794206,194.890223 245.659931,195.248861 245.631711,195.666539 L256.526604,196.855928 L246.193169,197.984024 C246.848495,199.45119 248.013355,201.187442 249.376686,202.995446 L256.526604,203.775999 L250.489321,204.435085 C252.290417,206.71665 254.272276,209.028901 255.834151,210.990734 C255.884582,211.494441 256.544833,212.323669 257.668551,213.393497 C262.803635,213.292503 269.374522,213.149972 275.735191,212.97405 L275.735191,202.360946 L261.465955,200.878906 L275.735191,199.396866 L275.735191,195.784393 L260.093913,194.295228 L275.735191,192.806062 L275.735191,189.507098 L261.465955,188.025058 L275.735191,186.543018 L275.735191,182.068397 L272.716699,182.068397 L272.716699,177.881354 C265.815335,178.225003 255.892322,178.434175 245.001451,178.540082 L245.001451,184.004369 L242.806184,184.004369 L242.806184,186.369119 Z M343.557242,127.691255 C352.693142,127.264199 361.293002,126.579321 372.304835,124.872524 C372.568688,124.831628 374.055546,123.02269 375.601109,121.127186 C368.159149,122.377728 354.408325,124.845819 343.557242,127.691255 Z" id="grancypher"></path>
        </g>
    </g>
</svg>