<?xml version="1.0" encoding="UTF-8"?>
<svg width="180px" height="180px" viewBox="0 0 180 180" version="1.1" xmlns="http://www.w3.org/2000/svg" xmlns:xlink="http://www.w3.org/1999/xlink">
    <!-- Generator: Sketch 49.3 (51167) - http://www.bohemiancoding.com/sketch -->
    <title>norma-icon</title>
    <desc>Created with Sketch.</desc>
    <defs></defs>
    <g id="norma-icon" stroke="none" stroke-width="1" fill="none" fill-rule="evenodd">
        <g id="Group" transform="translate(3.000000, 3.000000)">
            <circle id="Oval-2" fill="#6FB7FF" cx="87.5" cy="87.5" r="87.5"></circle>
            <path d="M81.1134117,101.996529 C85.4921532,93.0723651 93.7836037,85.4077467 105.497346,78.2595997 C108.24802,76.5810397 111.072537,74.9908981 114.435295,73.2020677 C110.934456,86.3339021 111.177643,95.6821213 112.70825,96.7783208 C112.70825,104.807608 122.534704,107.436582 128.388024,115.023819 C132.686767,128.317036 126.337981,138.022407 121.830002,141.927285 C96.6393904,152.983332 93.0359457,136.389392 92.1831324,133.994304 C82.2623758,126.430382 80.482094,113.163441 81.1134117,101.996529 Z M103.861437,65.4966088 C117.775902,34.9720621 117.522725,39.0216185 129.899696,26 C132.629169,26 132.777111,31.1697343 131.544785,36.3250786 C126.592656,43.5752779 122.769892,50.7911987 119.861456,57.5816973 C119.732062,57.6165507 119.600923,57.6519137 119.468004,57.6877927 C114.954539,58.9061164 111.333431,60.8006377 103.861437,65.4966088 Z" id="Combined-Shape" fill="#FFFFFF"></path>
            <path d="M59.6077532,148.353127 C69.3389934,146.776939 80.3374047,140.777853 81.9871958,128.197061 C80.3374047,124.506927 75.3962599,124.082223 77.2517606,119.600705 C75.3962599,79.095962 136.270436,68.1140886 133.664389,59.3861342 C133.664389,54.6085197 130.205116,55.5035847 119.912408,58.2819053 C105.605749,62.1437155 91.6578986,78.974087 77.2517606,75.8293347 C71.8016313,80.9622644 64.9162367,85.2368146 64.9162367,85.2368146 C64.9162367,85.2368146 62.6457904,85.7886299 57.1739147,82.4050596 C54.6489761,83.4052063 36.3537509,104.693615 42.1165588,133.14695 C41.2903004,134.455754 47.4179894,145.483089 59.6077532,148.353127 Z" id="Path-8" fill="#FFFFFF"></path>
        </g>
    </g>
</svg>